<?xml version="1.0" encoding="UTF-8" standalone="no"?><!DOCTYPE svg PUBLIC "-//W3C//DTD SVG 1.1//EN" "http://www.w3.org/Graphics/SVG/1.1/DTD/svg11.dtd"><!-- Generated by graphviz version 2.40.1 (20161225.0304)
 --><!-- Title: family_tree Pages: 1 --><svg xmlns="http://www.w3.org/2000/svg" xmlns:xlink="http://www.w3.org/1999/xlink" width="268pt" height="397pt" viewBox="0.00 0.00 268.00 397.01">
<g id="graph0" class="graph" transform="scale(1 1) rotate(0) translate(4 393.0098)">
<title>family_tree</title>
<polygon fill="#ffffff" stroke="transparent" points="-4,4 -4,-393.0098 264,-393.0098 264,4 -4,4"/>
<!-- B_C0 -->
<g id="node1" class="node">
<title>B_C0</title>
<polygon fill="#d3d3d3" stroke="#000000" points="188,-202.0098 184.5,-198.5098 188,-195.0098 191.5,-198.5098 188,-202.0098"/>
</g>
<!-- A -->
<g id="node4" class="node">
<title>A</title>
<polygon fill="none" stroke="#0000ff" points="90,-155.0049 54,-155.0049 54,-119.0049 90,-119.0049 90,-155.0049"/>
<text text-anchor="middle" x="72" y="-132.8049" font-family="Times,serif" font-size="14.00" fill="#000000">A</text>
</g>
<!-- B_C0&#45;&gt;A -->
<g id="edge3" class="edge">
<title>B_C0-&gt;A</title>
<path fill="none" stroke="#000000" d="M185.0951,-197.5408C173.6419,-193.6556 130.6911,-178.473 99,-159.0098 98.8132,-158.8951 98.6263,-158.7792 98.4393,-158.6622"/>
<polygon fill="#000000" stroke="#000000" points="100.3084,-155.6985 90.1067,-152.839 96.2986,-161.4362 100.3084,-155.6985"/>
</g>
<!-- P -->
<g id="node5" class="node">
<title>P</title>
<polygon fill="none" stroke="#0000ff" points="206,-155.0049 170,-155.0049 170,-119.0049 206,-119.0049 206,-155.0049"/>
<text text-anchor="middle" x="188" y="-132.8049" font-family="Times,serif" font-size="14.00" fill="#000000">P</text>
</g>
<!-- B_C0&#45;&gt;P -->
<g id="edge4" class="edge">
<title>B_C0-&gt;P</title>
<path fill="none" stroke="#000000" d="M188,-194.8466C188,-188.9858 188,-176.9811 188,-165.4195"/>
<polygon fill="#000000" stroke="#000000" points="191.5001,-165.1153 188,-155.1154 184.5001,-165.1154 191.5001,-165.1153"/>
</g>
<!-- D -->
<g id="node6" class="node">
<title>D</title>
<polygon fill="none" stroke="#ffc0cb" points="260,-155.0049 224,-155.0049 224,-119.0049 260,-119.0049 260,-155.0049"/>
<text text-anchor="middle" x="242" y="-132.8049" font-family="Times,serif" font-size="14.00" fill="#000000">D</text>
</g>
<!-- B_C0&#45;&gt;D -->
<g id="edge5" class="edge">
<title>B_C0-&gt;D</title>
<path fill="none" stroke="#000000" d="M189.7967,-196.4634C194.4779,-191.1316 207.5117,-176.2864 219.3837,-162.7644"/>
<polygon fill="#000000" stroke="#000000" points="222.2,-164.8615 226.1676,-155.0376 216.9397,-160.2431 222.2,-164.8615"/>
</g>
<!-- B -->
<g id="node2" class="node">
<title>B</title>
<polygon fill="none" stroke="#0000ff" points="179,-274.0098 143,-274.0098 143,-238.0098 179,-238.0098 179,-274.0098"/>
<text text-anchor="middle" x="161" y="-251.8098" font-family="Times,serif" font-size="14.00" fill="#000000">B</text>
</g>
<!-- B&#45;&gt;B_C0 -->
<g id="edge1" class="edge">
<title>B-&gt;B_C0</title>
<path fill="none" stroke="#000000" d="M169.543,-237.8164C175.8464,-224.3925 183.8241,-207.4029 186.805,-201.0547"/>
</g>
<!-- C -->
<g id="node3" class="node">
<title>C</title>
<polygon fill="none" stroke="#ffc0cb" points="233,-274.0098 197,-274.0098 197,-238.0098 233,-238.0098 233,-274.0098"/>
<text text-anchor="middle" x="215" y="-251.8098" font-family="Times,serif" font-size="14.00" fill="#000000">C</text>
</g>
<!-- C&#45;&gt;B_C0 -->
<g id="edge2" class="edge">
<title>C-&gt;B_C0</title>
<path fill="none" stroke="#000000" d="M206.457,-237.8164C200.1536,-224.3925 192.1759,-207.4029 189.195,-201.0547"/>
</g>
<!-- A_M0 -->
<g id="node13" class="node">
<title>A_M0</title>
<polygon fill="#d3d3d3" stroke="#000000" points="45,-79 41.5,-75.5 45,-72 48.5,-75.5 45,-79"/>
</g>
<!-- A&#45;&gt;A_M0 -->
<g id="edge12" class="edge">
<title>A-&gt;A_M0</title>
<path fill="none" stroke="#000000" d="M64.0451,-118.8841C57.5741,-104.1433 49.0457,-84.716 46.0751,-77.949"/>
</g>
<!-- RRR_D0 -->
<g id="node7" class="node">
<title>RRR_D0</title>
<polygon fill="#d3d3d3" stroke="#000000" points="186,-79 182.5,-75.5 186,-72 189.5,-75.5 186,-79"/>
</g>
<!-- D&#45;&gt;RRR_D0 -->
<g id="edge7" class="edge">
<title>D-&gt;RRR_D0</title>
<path fill="none" stroke="#000000" d="M225.501,-118.8841C211.8216,-103.8599 193.7093,-83.9671 187.8873,-77.5728"/>
</g>
<!-- RR -->
<g id="node9" class="node">
<title>RR</title>
<polygon fill="none" stroke="#ffc0cb" points="204,-36 168,-36 168,0 204,0 204,-36"/>
<text text-anchor="middle" x="186" y="-13.8" font-family="Times,serif" font-size="14.00" fill="#000000">RR</text>
</g>
<!-- RRR_D0&#45;&gt;RR -->
<g id="edge8" class="edge">
<title>RRR_D0-&gt;RR</title>
<path fill="none" stroke="#000000" d="M186,-71.7273C186,-66.4609 186,-56.4249 186,-46.4389"/>
<polygon fill="#000000" stroke="#000000" points="189.5001,-46.2526 186,-36.2526 182.5001,-46.2526 189.5001,-46.2526"/>
</g>
<!-- RRR -->
<g id="node8" class="node">
<title>RRR</title>
<polygon fill="none" stroke="#0000ff" points="152.0098,-159.0147 107.9902,-159.0147 107.9902,-114.9951 152.0098,-114.9951 152.0098,-159.0147"/>
<text text-anchor="middle" x="130" y="-132.8049" font-family="Times,serif" font-size="14.00" fill="#000000">RRR</text>
</g>
<!-- RRR&#45;&gt;RRR_D0 -->
<g id="edge6" class="edge">
<title>RRR-&gt;RRR_D0</title>
<path fill="none" stroke="#000000" d="M150.2173,-114.8002C163.2502,-100.4861 178.7268,-83.4882 184.0724,-77.6171"/>
</g>
<!-- X_Y0 -->
<g id="node10" class="node">
<title>X_Y0</title>
<polygon fill="#d3d3d3" stroke="#000000" points="161,-317.0098 157.5,-313.5098 161,-310.0098 164.5,-313.5098 161,-317.0098"/>
</g>
<!-- X_Y0&#45;&gt;B -->
<g id="edge11" class="edge">
<title>X_Y0-&gt;B</title>
<path fill="none" stroke="#000000" d="M161,-309.7371C161,-304.4707 161,-294.4347 161,-284.4487"/>
<polygon fill="#000000" stroke="#000000" points="164.5001,-284.2624 161,-274.2624 157.5001,-284.2624 164.5001,-284.2624"/>
</g>
<!-- X -->
<g id="node11" class="node">
<title>X</title>
<polygon fill="none" stroke="#0000ff" points="152,-389.0098 116,-389.0098 116,-353.0098 152,-353.0098 152,-389.0098"/>
<text text-anchor="middle" x="134" y="-366.8098" font-family="Times,serif" font-size="14.00" fill="#000000">X</text>
</g>
<!-- X&#45;&gt;X_Y0 -->
<g id="edge9" class="edge">
<title>X-&gt;X_Y0</title>
<path fill="none" stroke="#000000" d="M142.543,-352.8164C148.8464,-339.3925 156.8241,-322.4029 159.805,-316.0547"/>
</g>
<!-- Y -->
<g id="node12" class="node">
<title>Y</title>
<polygon fill="none" stroke="#ffc0cb" points="206,-389.0098 170,-389.0098 170,-353.0098 206,-353.0098 206,-389.0098"/>
<text text-anchor="middle" x="188" y="-366.8098" font-family="Times,serif" font-size="14.00" fill="#000000">Y</text>
</g>
<!-- Y&#45;&gt;X_Y0 -->
<g id="edge10" class="edge">
<title>Y-&gt;X_Y0</title>
<path fill="none" stroke="#000000" d="M179.457,-352.8164C173.1536,-339.3925 165.1759,-322.4029 162.195,-316.0547"/>
</g>
<!-- M -->
<g id="node14" class="node">
<title>M</title>
<polygon fill="none" stroke="#ffc0cb" points="36,-155.0049 0,-155.0049 0,-119.0049 36,-119.0049 36,-155.0049"/>
<text text-anchor="middle" x="18" y="-132.8049" font-family="Times,serif" font-size="14.00" fill="#000000">M</text>
</g>
<!-- M&#45;&gt;A_M0 -->
<g id="edge13" class="edge">
<title>M-&gt;A_M0</title>
<path fill="none" stroke="#000000" d="M25.9549,-118.8841C32.4259,-104.1433 40.9543,-84.716 43.9249,-77.949"/>
</g>
</g>
</svg>